# xmcd
#
# Track frame offsets: 
#        150
#        19235
#        32983
#        57424
#        84571
#        114790
#        135691
#        150775
#        172827
#        191952
#        210248
#        237340
#
# Disc length: 3424 seconds
#
# Revision: 0
# Processed by: cddbd v1.5.2PL0 Copyright (c) Steve Scherf et al.
# Submitted via: ExactAudioCopy v0.99pb5
#
DISCID=930d5e0c
DTITLE=Cayo Hueso - Living On Island Time
DYEAR=2005
DGENRE=Rock
TTITLE0=Living On Island Time
TTITLE1=Tallahassee Girl
TTITLE2=I Don't Have You
TTITLE3=Beach Bar
TTITLE4=Creola
TTITLE5=Casey Key
TTITLE6=Changing Channels
TTITLE7=Whatever It Was
TTITLE8=You and I
TTITLE9=Bahama Jam
TTITLE10=Mexican Nights
TTITLE11=You Belong To Me
EXTD=
EXTT0=
EXTT1=
EXTT2=
EXTT3=
EXTT4=
EXTT5=
EXTT6=
EXTT7=
EXTT8=
EXTT9=
EXTT10=
EXTT11=
PLAYORDER=
